<svg id="Layer_1" data-name="Layer 1" xmlns="http://www.w3.org/2000/svg" viewBox="0 0 584.27 328.45"><defs><style>.cls-1{fill:#657ebf;}.cls-2{fill:#be5776;}.cls-3{fill:#f05047;}.cls-4{fill:#b5d2ee;}.cls-5{fill:#fcb13d;}.cls-6{fill:none;stroke:#fff;stroke-miterlimit:10;stroke-width:1.39px;}</style></defs><path class="cls-1" d="M584.27,78.13V316.46c-15,9.69-32.88,14.39-50.29,10.78-24.33-5-43.41-24.52-67.29-31.39-26.46-7.6-55.21,1.2-82.16-4.43-37.88-7.91-65.58-45-68.9-83.59S330.26,131,357.29,103.28a180.88,180.88,0,0,1,121.18-53.8C510.58,48.25,556.51,56,584.27,78.13Z"/><path class="cls-2" d="M196.21,116.21c-19.73-.61-39.44-4.17-59.12-2.55s-40.24,9.58-50.6,26.39c-8,12.95-8.72,29-8.55,44.21.19,17.29,1.81,36,13.33,48.94,9.33,10.46,23.8,15.16,37.81,15.6,38.42,1.2,93.09-13.46,114.76-47.89,11.35-18,25.34-41.6,14.46-63C246.71,115.07,218,116.88,196.21,116.21Z"/><path class="cls-3" d="M309.86,5C300.05,3,289.13,3.91,281,9.56c-10,7-13.6,19.43-16.19,31s-4.67,24,.86,34.51c4.39,8.32,13.1,14,22.45,16.78s19.34,2.78,29.09,2c12.21-.92,25.34-3.54,33.34-12.35,9.4-10.35,8.74-25.76,5.93-39.16C351.15,16.81,334.83,10.11,309.86,5Z"/><path class="cls-4" d="M198,46.69c.64-5.46,6.09-9.43,11.56-9.89s10.82,1.86,15.45,4.82c6.08,3.88,11.5,9.09,14.63,15.6s3.77,14.41.72,21C236.31,86.84,226,91.8,216.54,90.35S199,81.63,195.71,72.64s-2-19.32,2.67-27.69"/><path class="cls-5" d="M115.62,0A57.86,57.86,0,0,0,67.13,26.88c-7.44,12-9.65,28.85-.47,39.59,6.14,7.19,16.07,10.12,25.52,10.32,19,.4,36.81-8.58,53.69-17.34C188.78,37.18,149.18.14,115.62,0Z"/><path class="cls-6" d="M384.83,14.93c-19.11.48-34.68,15.26-46.28,30.46s-22,32.4-38.62,41.78-42.26,6.43-49.31-11.34c-3.21-8.1-1.88-17.2-2.73-25.88s-5.39-18.4-14-19.85c-10.55-1.78-18.42,9.93-20.51,20.43s-1.87,22.34-9,30.34c-10.65,11.95-31.12,7.32-43-3.4s-19-25.82-30.46-37C114.09,24,87.78,17.58,65.51,25.31s-39.16,29.5-40.33,53,13.92,47.22,36,55.4c30.81,11.4,70.26-5.29,95.54,15.69,27.16,22.53,15.19,70.31,39.13,96.24,14.25,15.45,38.48,18.63,58.41,12s36.09-21.57,49.3-37.92c9.48-11.73,18.26-24.83,31.55-31.95,21.87-11.7,50.3-3.13,68.09,14.16s27,41.41,34.27,65.13c3.58,11.7,6.87,23.66,13.23,34.11s16.42,19.36,28.51,21.18c15.28,2.3,30.59-7.6,38.09-21.11s8.34-29.81,6.23-45.12c-4.29-31.29-19.84-59.93-26.71-90.76-4.37-19.59-4.51-42.29,3-61.23,6.67-16.86,28.77-23.47,46-21.3A54,54,0,0,1,586.76,112"/></svg>