<svg id="Layer_1" data-name="Layer 1" xmlns="http://www.w3.org/2000/svg" viewBox="0 0 23.86 23.86">
  <path d="M12.09,2.28c3.19,0,3.56,0,4.82.07a6.73,6.73,0,0,1,2.22.41,3.69,3.69,0,0,1,1.37.89A3.57,3.57,0,0,1,21.39,5a6.61,6.61,0,0,1,.41,2.22c.06,1.26.07,1.64.07,4.82s0,3.56-.07,4.82a6.73,6.73,0,0,1-.41,2.22,3.69,3.69,0,0,1-.89,1.37,3.57,3.57,0,0,1-1.37.89,6.61,6.61,0,0,1-2.22.41c-1.26.06-1.64.07-4.82.07s-3.56,0-4.82-.07a6.73,6.73,0,0,1-2.22-.41,3.69,3.69,0,0,1-1.37-.89,3.57,3.57,0,0,1-.89-1.37,6.61,6.61,0,0,1-.41-2.22c-.06-1.26-.07-1.64-.07-4.82s0-3.56.07-4.82A6.41,6.41,0,0,1,2.79,5a3.69,3.69,0,0,1,.89-1.37,3.69,3.69,0,0,1,1.37-.89,6.61,6.61,0,0,1,2.22-.41c1.25-.06,1.63-.07,4.82-.07m0-2.15C8.85.13,8.44.14,7.17.2a9,9,0,0,0-2.9.55A5.71,5.71,0,0,0,2.16,2.13,6,6,0,0,0,.78,4.24a8.72,8.72,0,0,0-.55,2.9C.17,8.41.16,8.82.16,12.06s0,3.65.07,4.92a9,9,0,0,0,.55,2.9A5.71,5.71,0,0,0,2.16,22a6,6,0,0,0,2.11,1.38,8.72,8.72,0,0,0,2.9.55c1.27.06,1.68.07,4.92.07s3.65,0,4.92-.07a9,9,0,0,0,2.9-.55A5.71,5.71,0,0,0,22,22a6,6,0,0,0,1.38-2.11A8.72,8.72,0,0,0,24,17c.06-1.27.07-1.68.07-4.92S24,8.41,24,7.14a9,9,0,0,0-.55-2.9A5.71,5.71,0,0,0,22,2.13,6,6,0,0,0,19.91.75,8.72,8.72,0,0,0,17,.2C15.73.14,15.33.13,12.09.13Z" transform="translate(-0.16 -0.13)" style="fill:#677fbf"/>
  <path d="M12.09,5.93a6.13,6.13,0,1,0,6.13,6.13A6.13,6.13,0,0,0,12.09,5.93Zm0,10.11a4,4,0,1,1,4-4A4,4,0,0,1,12.09,16Z" transform="translate(-0.16 -0.13)" style="fill:#677fbf"/>
  <circle cx="18.3" cy="5.56" r="1.43" style="fill:#677fbf"/>
</svg>