<svg id="Layer_1" data-name="Layer 1" xmlns="http://www.w3.org/2000/svg" viewBox="0 0 23.95 23.95">
  <path d="M22,24.07H2.2L2,24A2.12,2.12,0,0,1,.16,22.3L.1,22V2.22A1.39,1.39,0,0,0,.16,2,2.12,2.12,0,0,1,1.87.18L2.2.12H22l.19.06A2.12,2.12,0,0,1,24,1.89l.06.33V22a1.39,1.39,0,0,0-.06.19A2.12,2.12,0,0,1,22.28,24ZM13.26,10.39V9.57a.62.62,0,0,0-.68-.68H10a.64.64,0,0,0-.73.73V20.73a.66.66,0,0,0,.74.73h2.53a.65.65,0,0,0,.74-.74V15.06a4.11,4.11,0,0,1,.39-1.76,1.91,1.91,0,0,1,2-1.14,1.75,1.75,0,0,1,1.66,1.43,6,6,0,0,1,.18,1.33c0,1.94,0,3.88,0,5.83a.64.64,0,0,0,.72.72h2.62a.67.67,0,0,0,.76-.74c0-2,0-4,0-6A10.75,10.75,0,0,0,21.27,12a3.91,3.91,0,0,0-2.56-3,6,6,0,0,0-3.11-.12A3.53,3.53,0,0,0,13.26,10.39ZM7.55,15.18V9.66a.68.68,0,0,0-.75-.77H4.3a.66.66,0,0,0-.75.76v11a.68.68,0,0,0,.77.77H6.71c.6,0,.85-.25.85-.85C7.55,18.8,7.55,17,7.55,15.18Zm.56-9.86A2.58,2.58,0,1,0,5.53,7.89,2.59,2.59,0,0,0,8.11,5.32Z" transform="translate(-0.1 -0.12)" style="fill:#677fbf"/>
</svg>