<svg id="Layer_1" data-name="Layer 1" xmlns="http://www.w3.org/2000/svg" viewBox="0 0 189.33 79.13"><defs><style>.cls-1{fill:#c35273;}</style></defs><path class="cls-1" d="M144.71,59.66a4.48,4.48,0,0,0-.16.52,13.14,13.14,0,0,1-1,2.9c-.57,1.33-1.09,2.68-1.71,4a7.44,7.44,0,0,1-2.39,3,5.47,5.47,0,0,0-.51.45,2.64,2.64,0,0,1-3.06.32,9.77,9.77,0,0,1-2.43-2,18.21,18.21,0,0,1-3.58-6.46,12.72,12.72,0,0,1-.54-2.8c-.12-1.37-.24-2.75-.31-4.14a37.26,37.26,0,0,1,1.7-12.85,16.38,16.38,0,0,1,1.5-3.3,32,32,0,0,1,4.44-5.69,7.16,7.16,0,0,1,1.95-1.35,1.75,1.75,0,0,1,2.14.33c.16.16.32.39.56.24s.1-.42,0-.63a47.53,47.53,0,0,1-1.2-7.6c-.2-2.17-.27-4.26-.6-6.41a3.63,3.63,0,0,1,.69-3.18,3.8,3.8,0,0,1,2.4-.76,3.27,3.27,0,0,1,1.84.23,2.34,2.34,0,0,1,1,1.48c.7,2.62,0,5.36.06,8,0,2.37.2,4.74.34,7.11.27,4.7.6,9.4.83,14.11.12,2.31.07,4.64.08,7,0,.58,0,1.15-.1,1.73A5,5,0,0,0,147,56c.33,1,.57,2,.81,3.06a15.35,15.35,0,0,0,1.76,4.64c.41.66.86,1.29,1.23,2a3.34,3.34,0,0,1,.44,1.3,15.38,15.38,0,0,1,0,2.25c0,.48-.28.68-.73.77a2.19,2.19,0,0,1-2.23-.73,10.69,10.69,0,0,1-2.64-5.1c-.27-1.42-.49-2.86-.73-4.29a.94.94,0,0,0-.06-.15Zm-1.88-9.9c0-.48-.05-1-.1-1.45-.25-2-.52-4.05-.77-6.08a1.79,1.79,0,0,0-1.75-1.62c-1.46,0-2.06.93-2.93,2.7A28.12,28.12,0,0,0,135,50a29.06,29.06,0,0,0,.67,14.81,2.4,2.4,0,0,0,.7,1.1c1.25,1.07,2.55-.13,3-1.38s.77-2,1.25-3.12a17.19,17.19,0,0,0,1.12-3.21c.29-1.48.56-3,.78-4.46A20.25,20.25,0,0,0,142.83,49.76Z" transform="translate(-1.1 -3.22)"/><path class="cls-1" d="M167.26,14.34c-.79,0-1.24.36-1.32,1a1.36,1.36,0,0,0,1,1.56,4.41,4.41,0,0,0,3.2-.25,3.51,3.51,0,0,0,1.92-2.7,8.34,8.34,0,0,0-.95-5.19,2.13,2.13,0,0,0-1.68-1.16,5.34,5.34,0,0,0-4.8,1.72,9.66,9.66,0,0,0-2.36,4.17C161,18,160,22.55,159.09,27.14c-.27,1.32-.59,2.63-.84,3.95a14.58,14.58,0,0,0-.2,1.76c0,.42.11.5.44.3s.65-.41,1-.62a4.09,4.09,0,0,1,2.19-.63,1.69,1.69,0,0,1,1.17.32,25.74,25.74,0,0,1,2.31,1.86,5.5,5.5,0,0,1,1.68,4,35.32,35.32,0,0,1-.66,7.61c-.33,1.67-.57,3.36-.76,5.06-.24,2.1-.41,4.22-.57,6.33a29.43,29.43,0,0,0,0,3,9.09,9.09,0,0,1-.52,3.43c-.38,1.06-.74,2.13-1.09,3.2a1.26,1.26,0,0,1-.88.88,1.86,1.86,0,0,1-2.38-1.12,9.38,9.38,0,0,1-1-4.56,41.26,41.26,0,0,1,1-6.64c.67-3,1.34-5.92,1.93-8.89a29.66,29.66,0,0,0,.67-6.31c0-.5-.05-1-.1-1.51a3.24,3.24,0,0,0-.18-.73.76.76,0,0,0-1.28-.4,6.08,6.08,0,0,0-1.11,1.1c-.69.94-1.32,1.92-2,2.88a3.17,3.17,0,0,1-.23.36,3.31,3.31,0,0,0-.82,2.21c-.07,1.54-.14,3.09-.2,4.63l-.27,8a22.33,22.33,0,0,0,.4,5.41,8.6,8.6,0,0,1-.56,5c-.15.37-.21.41-.59.35a3,3,0,0,1-2.81-2.72,11.42,11.42,0,0,1-.1-1.55,57.91,57.91,0,0,1,.49-6c.07-.8.1-1.61.11-2.42,0-3.81,0-7.63,0-11.44,0-1-.08-2-.14-3a33.36,33.36,0,0,1,.19-4.47c.17-2,.33-4.09.58-6.12q.47-3.93,1.08-7.85c.34-2.16.72-4.32,1.19-6.45A22.73,22.73,0,0,1,159,8.22a11,11,0,0,1,4.15-4,8.34,8.34,0,0,1,6.56-.58,5.64,5.64,0,0,1,3.18,2.73,10,10,0,0,1,1.28,4.28,11.37,11.37,0,0,1-.17,3.54A4.86,4.86,0,0,1,172.27,17a8.81,8.81,0,0,1-5.56,2.16A2.55,2.55,0,0,1,164,16.7a3.77,3.77,0,0,1,1.51-3.86,2.37,2.37,0,0,1,2.83,0,1.57,1.57,0,0,1,.7,1.14,5.84,5.84,0,0,1,0,1.18,1.13,1.13,0,0,1-1.69.74.67.67,0,0,1-.29-.7C167.12,14.9,167.19,14.64,167.26,14.34Z" transform="translate(-1.1 -3.22)"/><path class="cls-1" d="M176,66.72a.2.2,0,0,0-.39-.09c-.24.48-.52,1.06-.57,1.12a9.43,9.43,0,0,1-.56.84,2.5,2.5,0,0,1-4.12,0,10,10,0,0,1-2-3.86,31.29,31.29,0,0,1-.9-7.47c-.12-3,0-6,.12-9a39.07,39.07,0,0,1,.61-4.53,36.08,36.08,0,0,1,1.06-4.6,11.4,11.4,0,0,1,3.17-5.13,1.35,1.35,0,0,1,1.32-.38A4.32,4.32,0,0,1,176,35.05a1.16,1.16,0,0,1,.11,1.26l-1,2.95c-.81,2.4-1.27,4.87-2,7.27a47.08,47.08,0,0,0-1.81,7.7,20.59,20.59,0,0,0,.43,8.13.86.86,0,0,0,1.6.18,25.37,25.37,0,0,0,2.69-7.7c.53-3,.54-6.08.93-9.11a22.26,22.26,0,0,1,1-4.44,29.54,29.54,0,0,1,1.35-3.94c.36-.72.7-.84,1.43-.6a8.08,8.08,0,0,1,2,.9,4.15,4.15,0,0,0,.89.39,1.38,1.38,0,0,1,.9,1.14,4.55,4.55,0,0,1-.12,2c-.3,1.05-.65,2.08-1,3.12-.61,2-1.28,3.94-1.82,5.95a73.37,73.37,0,0,0-2.78,14.18,6.15,6.15,0,0,0,.08,1.66c.33,1.73,1.24,2.08,2.42,2.54a2.85,2.85,0,0,1,1.71,2.25.62.62,0,0,1-.23.65,8.94,8.94,0,0,1-.9.62,3.81,3.81,0,0,1-4.46-1.06C176.32,70.24,176.09,67.93,176,66.72Z" transform="translate(-1.1 -3.22)"/><path class="cls-1" d="M110,58.48c.13-.54.26-1.07.37-1.61.73-3.7,1.43-7.4,2.21-11.09a29.06,29.06,0,0,0,.61-6.58,8.06,8.06,0,0,1,.54-3.11c.45-1.16.89-2.33,1.34-3.49a.83.83,0,0,1,.91-.55,11.08,11.08,0,0,1,1.52.19.9.9,0,0,1,.82,1.14A41.41,41.41,0,0,1,117.12,41a75.6,75.6,0,0,0-1.84,8.63,42,42,0,0,0-.86,7.23c0,2.19,0,4.39,0,6.58,0,1,.1,2,.15,3a3.08,3.08,0,0,1,0,.43,1.21,1.21,0,0,1-.73,1.18,6.71,6.71,0,0,1-2.55.71,2.14,2.14,0,0,1-1.76-.65c-.68-.7-1.45-1.31-2.16-2a13.81,13.81,0,0,1-2.92-4.26A25.67,25.67,0,0,1,102.6,56c-.52-2.35-.9-4.72-1.27-7.09a49.7,49.7,0,0,1-.46-9.52,7.8,7.8,0,0,1,.2-1.44c.18-.87.49-1.13,1.35-1.15a7,7,0,0,1,.92.07,1.14,1.14,0,0,1,1.09,1.09c.17.83.31,1.66.47,2.49a101.35,101.35,0,0,0,4,15.6c.25.69.54,1.36.81,2,.07.16.16.3.24.45Z" transform="translate(-1.1 -3.22)"/><path class="cls-1" d="M123.86,72.47l-.06-.81a.83.83,0,0,1-.55-.61l-.78-2.11c-.27-.7-.53-1.41-.8-2.11-.06-.17-.12-.34-.19-.51a.46.46,0,0,1,0-.41.42.42,0,0,1,.33-.2c.17,0,.34,0,.51-.07.34,0,.69-.08,1-.11l1.07-.07.54,0,.27,0a.44.44,0,0,1,.2,0,.29.29,0,0,1,.12.1.5.5,0,0,1,.08.3,2.49,2.49,0,0,1-.07.53c0,.18-.08.37-.11.55-.08.37-.15.74-.22,1.11,0,.09,0,.18,0,.27-.15.88-.28,1.77-.43,2.65a.85.85,0,0,1-.2.47.55.55,0,0,0-.22.55v.11c0,.94,0,1-.87,1.24a10,10,0,0,1-2.12.29,77.56,77.56,0,0,1-7.92-.2c-4.21-.23-8.43-.52-12.66-.34a27.89,27.89,0,0,0-3.4.4,6.92,6.92,0,0,0-1.31.43.9.9,0,0,0-.58.87.81.81,0,0,0,.56.77,16.4,16.4,0,0,0,1.77.66,30.79,30.79,0,0,0,6,1.3,37.17,37.17,0,0,0,7,.26c1.8-.17,3.59-.45,5.38-.68,4.26-.55,8.5-1.24,12.78-1.6,2.79-.23,5.56-.62,8.33-1a139.17,139.17,0,0,1,17.78-1.36c1.68,0,3.37,0,5.06-.1,2.93-.1,5.85.07,8.78.21,2.33.11,4.66.2,7,.32a37.92,37.92,0,0,1,10.69,1.91c1,.36,2.07.84,3.1,1.26l.14.07c.39.24.57.52.51.85a.84.84,0,0,1-.72.68,2.4,2.4,0,0,1-.6.06,15.71,15.71,0,0,1-3.55-.4c-3.17-.7-6.34-1.37-9.51-2.07-1.65-.36-3.29-.78-5-1.1-1.1-.21-2.23-.3-3.34-.41-2.75-.27-5.52-.23-8.27-.29a80,80,0,0,0-11.37.66c-1.93.23-3.87.41-5.8.58-5.08.45-10.14,1-15.19,1.72-2.85.4-5.71.75-8.57,1.1-1.81.23-3.63.42-5.44.62a5.65,5.65,0,0,1-.71,0,32,32,0,0,1-8.43-.13,26.17,26.17,0,0,1-5.56-.8,6.11,6.11,0,0,1-3.26-1.79,4.44,4.44,0,0,1-.68-.93,1.77,1.77,0,0,1,.3-2.2,5.36,5.36,0,0,1,3.07-1.59,24,24,0,0,1,5.35-.27c.26,0,.52,0,.77,0a61.86,61.86,0,0,1,8,.69c1.37.15,2.75.27,4.12.36,1.74.11,3.47.2,5.21.27C122.15,72.53,123,72.48,123.86,72.47Z" transform="translate(-1.1 -3.22)"/><path class="cls-1" d="M125.92,50.24c-.06,3.14-.11,6.29-.17,9.43,0,1,0,2.08-.07,3.13a.51.51,0,0,1-.38.55,5.64,5.64,0,0,1-1,.23c-.82.05-1.63.07-2.45.09a1.42,1.42,0,0,1-.41,0,.5.5,0,0,1-.44-.5,47.89,47.89,0,0,1-.32-6.78c0-1.64-.09-3.3-.14-5q-.08-2-.12-4c-.05-2-.1-4-.11-6,0-1.24.07-2.48.13-3.71A2.59,2.59,0,0,1,122,35.28l.81-.34a2.52,2.52,0,0,1,2.64.47,1.28,1.28,0,0,1,.49.74,13.74,13.74,0,0,1,.28,1.91c.07,1.67,0,3.34-.06,5-.11,2.38-.14,4.78-.21,7.17Zm-2.85,11a1.09,1.09,0,0,0,1.18-1.13,1.22,1.22,0,0,0-1-1.34A1.27,1.27,0,0,0,121.93,60,1.08,1.08,0,0,0,123.07,61.22Z" transform="translate(-1.1 -3.22)"/><path class="cls-1" d="M87.06,37.6a6.66,6.66,0,0,0-11,.75c-.08.12-.16.2-.36.44,0-1.58.08-3,0-4.39a16.48,16.48,0,0,0-4-10.5A27.52,27.52,0,0,0,56.45,15c-1.94-.39-3.92-.67-5.9-1a4,4,0,0,0,.4-.55,16.73,16.73,0,0,0,1.34-3.17A5.21,5.21,0,0,0,48.81,4c-3-1.15-7.13.08-8.75,2.57a4,4,0,0,0,2.18,5.9,3.18,3.18,0,0,0,3.2-.71,1.82,1.82,0,0,0,.68-1.63.66.66,0,0,0-.83-.67.68.68,0,0,0-.64.87.76.76,0,0,1-.08.52,1.36,1.36,0,0,1-2-.2,2.69,2.69,0,0,1,1.86-4.2,4.83,4.83,0,0,1,2.14,0,2.48,2.48,0,0,1,2.14,3A6.45,6.45,0,0,1,46.79,13a3.45,3.45,0,0,1-2.26.95A52.2,52.2,0,0,0,30.28,16,23.3,23.3,0,0,0,22,20.14a6.89,6.89,0,0,0-2.82,4.52c0,.15-.19.31-.35.43a15.42,15.42,0,0,0-2.58,1.51,7.93,7.93,0,0,0-3.44,5.14,1.16,1.16,0,0,1-.48.6c-1.58,1.18-3.24,2.29-4.83,3.52C6.05,37,4.7,38.12,3.32,39.31a2.17,2.17,0,0,0-.68,2.85A15.62,15.62,0,0,1,3.4,44.1a1,1,0,0,1-.08.75,16,16,0,0,0-2.18,9.42,13.39,13.39,0,0,0,2.77,7.8c2.69,3.37,6.49,3.72,9.78.87a1.62,1.62,0,0,1,.36-.2c.27.76.51,1.51.83,2.22A28.31,28.31,0,0,0,30.56,79.69a42.16,42.16,0,0,0,13.1,2.57,39.44,39.44,0,0,0,23.72-6A20.66,20.66,0,0,0,77.59,60.61c.16-1.47.2-2.89.32-4.36,0-.08,0-.12.12-.08a7.07,7.07,0,0,0,1.5.71,5.78,5.78,0,0,0,1.79.4,6.78,6.78,0,0,0,6.09-3.05,12.93,12.93,0,0,0,2.54-9A12.5,12.5,0,0,0,87.06,37.6ZM13.53,56.92c-.39,1.72-1.89,4.07-3.94,3.7a3.61,3.61,0,0,1-2.35-1.78A8,8,0,0,1,6.33,56a15.68,15.68,0,0,1,1-9.09A6.17,6.17,0,0,1,9,44.57a3.07,3.07,0,0,1,2.72-.6,2.88,2.88,0,0,1,1.75,3.82.63.63,0,0,0-.62-.49,1.4,1.4,0,0,0-.8.27,4.47,4.47,0,0,0-2,4.15,2.42,2.42,0,0,0,.81,1.71c.62.49,1.06.1,1.67.23a1.53,1.53,0,0,1,1.1,1.25A3.82,3.82,0,0,1,13.53,56.92ZM14.8,40a4.4,4.4,0,0,1-.52.39c-.83.68-1.46,1.31-2.57.87a6,6,0,0,0-6.25,1.11c-.16.16-.32.28-.48.44-1-1.35-.91-2,.32-3,2.53-2,5.1-4,7.72-5.9,3-2.26,6.06-4.51,9.1-6.73a2.67,2.67,0,0,1,.95-.44c1.51-.39,3.05-.75,4.56-1.1a1.93,1.93,0,0,1,.63-.12.65.65,0,0,1,.6,1,23.79,23.79,0,0,1-3.05,5.38,20,20,0,0,1-4.64,3.53c-1.26.87-2.53,1.74-3.76,2.65C16.54,38.71,15.67,39.34,14.8,40Zm51.35,35a30.1,30.1,0,0,1-14.09,4.16,43,43,0,0,1-17.74-2.34,21.43,21.43,0,0,1-11-8.35,21.81,21.81,0,0,1-3.68-12.16,47.31,47.31,0,0,1,1.78-12.43c.08-.24.16-.48.24-.68a2.13,2.13,0,0,1,1.66-1.58,8.67,8.67,0,0,0,5.15-4,11.65,11.65,0,0,0,1.73-3.88,1.55,1.55,0,0,1,1.89-1.15,14.68,14.68,0,0,0,5.37,0c4.75-.71,9.46-1.54,14.17-2.33a30.23,30.23,0,0,1,8.43-.56,15.72,15.72,0,0,1,2.9.76,2.31,2.31,0,0,1,1.5,1.58,24.91,24.91,0,0,0,1,2.34,5.29,5.29,0,0,0,3.48,2.93c.76.23,1.55.47,2.3.75a2.71,2.71,0,0,1,1.58,1.66,51.75,51.75,0,0,1,3.29,18.69C76,65.91,72.33,71.22,66.15,75.06Zm18-24.46a7.6,7.6,0,0,1-4.18,2.5c-.78.17-1.93.2-2.37-.64-.28-.53-.08-1.28-.24-1.85a3.06,3.06,0,0,0,2.49-.86,3.74,3.74,0,0,0,1.08-2.47,3.33,3.33,0,0,0-1.46-3.07c-1-.61-3.12.71-3.12.71a5.54,5.54,0,0,1-.59-2.08A3.18,3.18,0,0,1,77,41.41a5.35,5.35,0,0,1,4.07-.85,5.81,5.81,0,0,1,4.21,3.7,6.54,6.54,0,0,1-.66,5.61A6.41,6.41,0,0,1,84.12,50.6Z" transform="translate(-1.1 -3.22)"/><path class="cls-1" d="M53.67,35.85c-.09.41-.18.82-.3,1.22-1.82,5.68-.26,10.59,3.39,15a1,1,0,0,1,0,1.51A7.26,7.26,0,0,1,52.2,55a3,3,0,0,1-.83-.12.94.94,0,0,1-.73-1,1,1,0,0,1,.91-1,18.23,18.23,0,0,1,2.31-.29.38.38,0,0,0,.3-.59c-.46-.69-.88-1.31-1.26-1.95A14,14,0,0,1,52,37.32a5,5,0,0,1,1.14-1.76A.32.32,0,0,1,53.67,35.85Z" transform="translate(-1.1 -3.22)"/><path class="cls-1" d="M50,58.53a.81.81,0,0,1,.24,1.2,2.47,2.47,0,0,1-.4.44c-.54.44-1.13.81-1.71,1.2a22.48,22.48,0,0,0-4.57,4c-.36.41-.71,1-1.4.58-.45-.25-.51-.82-.09-1.57a12.8,12.8,0,0,1,6.72-5.85,1.89,1.89,0,0,1,1.08-.08Z" transform="translate(-1.1 -3.22)"/><path class="cls-1" d="M58,65.71a.82.82,0,0,1-.13.73.3.3,0,0,1-.14.11.84.84,0,0,1-.71-.06,4.68,4.68,0,0,1-.89-.94c-1.29-1.76-2.57-3.54-3.85-5.31a2.13,2.13,0,0,1-.41-.73,1,1,0,0,1,.08-.77.81.81,0,0,1,.76-.17,4.89,4.89,0,0,1,1.41.89,19.75,19.75,0,0,1,3.83,6.07A1,1,0,0,1,58,65.71Z" transform="translate(-1.1 -3.22)"/><path class="cls-1" d="M49.46,67h0c-.5-.12-1.3-.28-2.07-.53a1.84,1.84,0,0,1-.91-.68,1.77,1.77,0,0,1-.16-1.19c.14-.48.65-.52,1.1-.44a7.45,7.45,0,0,1,1.12.31,5.16,5.16,0,0,0,3.91-.36h0a.8.8,0,0,1,1,1.22,3.54,3.54,0,0,1-.58.58A5.42,5.42,0,0,1,49.46,67Z" transform="translate(-1.1 -3.22)"/><path class="cls-1" d="M47.74,55a6.38,6.38,0,0,1-2.53-.32.72.72,0,0,1-.08-1.35,5.11,5.11,0,0,1,3.66-.42c.46.12.93.34.93.93s-.45.83-.91,1A5.14,5.14,0,0,1,47.74,55Z" transform="translate(-1.1 -3.22)"/><ellipse class="cls-1" cx="39.34" cy="42.64" rx="2.42" ry="4.05" transform="translate(-11.42 9.42) rotate(-16.17)"/><ellipse class="cls-1" cx="57.84" cy="41.77" rx="3.86" ry="2.31" transform="translate(-1.53 79.72) rotate(-71.08)"/><path class="cls-1" d="M41.59,37.18a.78.78,0,0,1-.64.16l-.38-.09a6.91,6.91,0,0,0-6.42,1.56,2.56,2.56,0,0,1-.78.56,1.15,1.15,0,0,1-.94-.1,1,1,0,0,1-.15-.91,3.45,3.45,0,0,1,.77-1.18A6.9,6.9,0,0,1,39.9,35.1a4.86,4.86,0,0,1,1.71,1.1c.16.13.14.56.08.83A.33.33,0,0,1,41.59,37.18Z" transform="translate(-1.1 -3.22)"/><path class="cls-1" d="M56.81,35.35c-.45,0-1,.23-1.22-.4s.29-1,.76-1.26A4,4,0,0,1,58,33.3a6.24,6.24,0,0,1,5,2.51,2.7,2.7,0,0,1,.49,1.49c0,.74-.42,1-1.06.57s-1.44-.95-2.16-1.45A5.69,5.69,0,0,0,56.81,35.35Z" transform="translate(-1.1 -3.22)"/></svg>