<svg id="Layer_1" data-name="Layer 1" xmlns="http://www.w3.org/2000/svg" viewBox="0 0 24.17 22.9">
    <path d="M24.16,23.8H18.93a5.33,5.33,0,0,1-2.2-.1c-.58-.3-.91-1.09-1.34-1.68-1.62-2.19-3.23-4.4-4.84-6.59l-.48-.61a4.63,4.63,0,0,1-.35.54C7.47,17.79,5.21,20.2,3,22.65a1.38,1.38,0,0,1-1.25.53c-.43,0-.87,0-1.51,0l9-9.55L0,1.05C.23,1,.39,1,.56,1,2.48,1,4.39,1,6.31,1a.92.92,0,0,1,.85.42Q9.91,5,12.66,8.65a6.48,6.48,0,0,0,.67.78,1.85,1.85,0,0,1,.26-.57c2.31-2.42,4.64-4.82,7-7.26A1.61,1.61,0,0,1,22,1a11.46,11.46,0,0,0,1.34,0l-9,9.8C17.55,15.1,20.8,19.38,24.16,23.8ZM20.63,22l-.24-.38L6.3,2.82C6.2,2.7,6.08,2.5,6,2.5c-.89,0-1.77,0-2.7,0a1.41,1.41,0,0,0,.07.22q7.1,9.51,14.18,19a.73.73,0,0,0,.37.27C18.78,22,19.66,22,20.63,22Z" transform="translate(0.01 -0.96)" style="fill:#677fbf"/>
</svg>