<?xml version="1.0" encoding="utf-8"?>
<!-- Generator: Adobe Illustrator 24.2.3, SVG Export Plug-In . SVG Version: 6.00 Build 0)  -->
<svg version="1.1" id="Layer_1" xmlns="http://www.w3.org/2000/svg" xmlns:xlink="http://www.w3.org/1999/xlink" x="0px" y="0px"
	 viewBox="0 0 1302.64 760.42" style="enable-background:new 0 0 1302.64 760.42;" xml:space="preserve">
<style type="text/css">
	.st0{opacity:0.15;fill:#B6D2EE;}
</style>
<path class="st0" d="M1302.64,284.85c-2.78,84.2-67.08,154.18-137.65,200.2c-70.56,46.02-150.96,76.74-216.82,129.27
	c-35.4,28.24-66.53,62.71-106.82,83.36c-71.5,36.66-158.46,23.17-234.37-3.15c-78.8-27.3-153.2-67.37-234.06-87.76
	c-80.86-20.39-173.43-18.09-239.29,33.07c-36.08,28.03-61.01,68.19-96.02,97.56C26.57,746.66,13.66,754.66,0,760.42V14.33
	C77.67-7.33,164.35-1.96,244.7,14.07c111.79,22.3,220.47,62.87,334.22,70.28C708.4,92.78,836.8,57.76,966.5,54.02
	c76.33-2.2,155.36,7.29,221.57,45.33C1254.28,137.4,1305.17,208.53,1302.64,284.85z"/>
</svg>
