<svg id="Layer_1" data-name="Layer 1" xmlns="http://www.w3.org/2000/svg" viewBox="0 0 508.38 249.82"><defs><style>.cls-1{fill:#f05047;}.cls-2{fill:#fcb13d;}.cls-3{fill:#b5d2ee;}.cls-4{fill:#657ebf;}.cls-5{fill:#be5776;}.cls-6{fill:none;stroke:#fff;stroke-miterlimit:10;stroke-width:1.39px;}</style></defs><path class="cls-1" d="M388.41,59c.85-1,1.69-2,2.53-2.84,16.75-17.48,41.48-25.25,64.34-20.82,18.2,3.53,35.22,14.65,46.85,30.23,13.82,18.52.85,37.93-2.26,58.36-2,13-1.51,24.42-11.45,34.18-11.44,11.22-29,11.42-43.81,6.71s-28.25-13.5-42.95-18.52c-6.34-2.16-12.92-3.63-18.87-6.83C355.49,124.76,372.28,78.56,388.41,59Z"/><path class="cls-2" d="M455.3,195.09c2.89,3.69,5.83,7.47,7.4,11.9,8.5,23.95-43.36,32-49.11,8-2.32-9.66,3.12-22.63,10.79-28.68C436.67,176.62,447,184.54,455.3,195.09Z"/><path class="cls-3" d="M230.32,79.17c-15,17.86-2.53,49.74,20.87,53.6,20,3.29,39.39-14.94,40.09-34a14.8,14.8,0,0,0-8-13.5C270.28,78.36,241.76,65.59,230.32,79.17Z"/><path class="cls-4" d="M181.26,169.89c-9.3,28.15-25.14,54.51-40,79.93l-1.46,2.51c-2.6-.75-5.18-1.58-7.71-2.51H0V15.55C9.28,8.23,21.26,4.79,33,2.73,61-2.17,97.78-1.83,121.7,15.1,145.9,32.22,170,53.25,181.55,81.24S190.73,141.22,181.26,169.89Z"/><path class="cls-5" d="M382.92,249.82H206a19.85,19.85,0,0,1-2-6.8c-1-9.56,5.27-18.43,12.53-24.73,5.25-4.56,11.19-8.34,16.5-12.81a54.92,54.92,0,0,0,5.73-5.48c7.41-8.29,11.28-19,16.51-28.86.45-.84.91-1.68,1.38-2.51,6-10.49,15.69-20.46,27.76-20.56a22.87,22.87,0,0,1,4.15.35c7.74,1.34,14.7,6.36,21.11,11.19,5.25,4,10.51,7.93,15.71,12,11.17,8.64,22.12,17.56,32.39,27.25,6.61,6.23,16.24,13.79,20.52,21.9C382.31,228.35,383.81,241,382.92,249.82Z"/><path class="cls-6" d="M521,184.3c-15.58,0-30-8.78-39.14-21.28-7.8-10.65-11.78-24-9.4-37.07,3.39-18.55,17.18-37.35,9.19-54.43-8.42-18-37.18-17.31-50.18-2.28S418.3,106.68,423.11,126c3,11.9,7.56,23.38,11.41,35a151.47,151.47,0,0,1,5.74,21.73c0,.1,0,.19.05.29,1.4,8.27,1.54,17.53-3.58,24.17s-17.12,8-21.24.68a11.5,11.5,0,0,1-1.42-5c-.4-5.23,1.78-11,1.2-16.45-1.13-10.62-12.78-17.26-23.45-17.65-21.89-.82-36.78,10.3-45,29.88-4.85,11.61-9.77,24.7-21.06,30.26-13.62,6.71-30.9-1.52-39-14.36s-9.16-28.81-9.08-44c.11-22.48.32-46.85-13-66.3-4.77-7-13.31-12.36-21.45-10.13-8.86,2.42-13.39,12.92-12.41,22.05a31.66,31.66,0,0,0,.8,4.45c1.82,7.36,5.94,14.11,9.74,20.77a173.56,173.56,0,0,1,13.87,29.74A97.67,97.67,0,0,1,260.19,193c1.84,18.36-3,38.1-16.25,51a50.07,50.07,0,0,1-7.21,5.82"/><path class="cls-6" d="M139.75,252.33c-2.6-.75-5.18-1.58-7.71-2.51a80.32,80.32,0,0,1-21.35-11.33c-15.24-11.57-25.2-32.14-19-50.24C97.57,171.06,115.14,161.4,130,151s29.53-27,25-44.57c-5.47-21.1-36-25.78-54.16-13.66s-26.74,33.83-35,54-18.56,41.6-38.07,51.32A46.06,46.06,0,0,1,0,202"/><path class="cls-1" d="M388.41,59c.85-1,1.69-2,2.53-2.84,16.75-17.48,41.48-25.25,64.34-20.82,18.2,3.53,35.22,14.65,46.85,30.23,13.82,18.52.85,37.93-2.26,58.36-2,13-1.51,24.42-11.45,34.18-11.44,11.22-29,11.42-43.81,6.71s-28.25-13.5-42.95-18.52c-6.34-2.16-12.92-3.63-18.87-6.83C355.49,124.76,372.28,78.56,388.41,59Z"/><path class="cls-2" d="M455.3,195.09c2.89,3.69,5.83,7.47,7.4,11.9,8.5,23.95-43.36,32-49.11,8-2.32-9.66,3.12-22.63,10.79-28.68C436.67,176.62,447,184.54,455.3,195.09Z"/><path class="cls-4" d="M181.26,169.89c-9.3,28.15-25.14,54.51-40,79.93l-1.46,2.51c-2.6-.75-5.18-1.58-7.71-2.51H0V15.55C9.28,8.23,21.26,4.79,33,2.73,61-2.17,97.78-1.83,121.7,15.1,145.9,32.22,170,53.25,181.55,81.24S190.73,141.22,181.26,169.89Z"/><path class="cls-5" d="M382.92,249.82H206a19.85,19.85,0,0,1-2-6.8c-1-9.56,5.27-18.43,12.53-24.73,5.25-4.56,11.19-8.34,16.5-12.81a54.92,54.92,0,0,0,5.73-5.48c7.41-8.29,11.28-19,16.51-28.86.45-.84.91-1.68,1.38-2.51,6-10.49,15.69-20.46,27.76-20.56a22.87,22.87,0,0,1,4.15.35c7.74,1.34,14.7,6.36,21.11,11.19,5.25,4,10.51,7.93,15.71,12,11.17,8.64,22.12,17.56,32.39,27.25,6.61,6.23,16.24,13.79,20.52,21.9C382.31,228.35,383.81,241,382.92,249.82Z"/><path class="cls-6" d="M521,184.3c-15.58,0-30-8.78-39.14-21.28-7.8-10.65-11.78-24-9.4-37.07,3.39-18.55,17.18-37.35,9.19-54.43-8.42-18-37.18-17.31-50.18-2.28S418.3,106.68,423.11,126c3,11.9,7.56,23.38,11.41,35a151.47,151.47,0,0,1,5.74,21.73c0,.1,0,.19.05.29,1.4,8.27,1.54,17.53-3.58,24.17s-17.12,8-21.24.68a11.5,11.5,0,0,1-1.42-5c-.4-5.23,1.78-11,1.2-16.45-1.13-10.62-12.78-17.26-23.45-17.65-21.89-.82-36.78,10.3-45,29.88-4.85,11.61-9.77,24.7-21.06,30.26-13.62,6.71-30.9-1.52-39-14.36s-9.16-28.81-9.08-44c.11-22.48.32-46.85-13-66.3-4.77-7-13.31-12.36-21.45-10.13-8.86,2.42-13.39,12.92-12.41,22.05a31.66,31.66,0,0,0,.8,4.45c1.82,7.36,5.94,14.11,9.74,20.77a173.56,173.56,0,0,1,13.87,29.74A97.67,97.67,0,0,1,260.19,193c1.84,18.36-3,38.1-16.25,51a50.07,50.07,0,0,1-7.21,5.82"/><path class="cls-6" d="M139.75,252.33c-2.6-.75-5.18-1.58-7.71-2.51a80.32,80.32,0,0,1-21.35-11.33c-15.24-11.57-25.2-32.14-19-50.24C97.57,171.06,115.14,161.4,130,151s29.53-27,25-44.57c-5.47-21.1-36-25.78-54.16-13.66s-26.74,33.83-35,54-18.56,41.6-38.07,51.32A46.06,46.06,0,0,1,0,202"/></svg>