<svg id="Layer_1" data-name="Layer 1" xmlns="http://www.w3.org/2000/svg" viewBox="0 0 559.24 214.06"><defs><style>.cls-1{fill:#657ebf;}.cls-2{fill:#be5776;}.cls-3{fill:#f05047;}.cls-4{fill:#b5d2ee;}.cls-5{fill:#fcb13d;}.cls-6{fill:none;stroke:#fff;stroke-miterlimit:10;stroke-width:1.39px;}</style></defs><path class="cls-1" d="M559.15,78.13V213.36h-268c-.28-1.84-.49-3.68-.65-5.53-.08-1-.15-1.93-.2-2.9-2.21-37.56,15.51-74.64,41.86-101.65a180.88,180.88,0,0,1,121.18-53.8C485.46,48.25,531.39,56,559.15,78.13Z"/><path class="cls-2" d="M218.73,200.91a71.25,71.25,0,0,1-10,12.45H56c-2.49-9.31-3-19.43-3.15-29.1-.17-15.22.57-31.26,8.55-44.21q.6-1,1.26-1.92c10.71-15.5,30.43-22.9,49.35-24.47,19.68-1.62,39.38,1.94,59.12,2.55,21.74.67,50.49-1.14,62.08,21.69C244.06,159.31,230.07,182.88,218.73,200.91Z"/><path class="cls-3" d="M284.75,5C274.94,3,264,3.91,255.93,9.56c-10,7-13.6,19.43-16.19,31s-4.67,24,.86,34.51c4.39,8.32,13.1,14,22.45,16.78s19.34,2.78,29.09,2c12.21-.92,25.33-3.54,33.34-12.35,9.4-10.35,8.74-25.76,5.93-39.16C326,16.81,309.72,10.11,284.75,5Z"/><path class="cls-4" d="M172.88,46.69c.64-5.46,6.09-9.43,11.57-9.89s10.81,1.86,15.44,4.82c6.09,3.88,11.5,9.09,14.64,15.6s3.77,14.41.71,21c-4,8.67-14.36,13.63-23.82,12.18s-17.55-8.72-20.82-17.71-2-19.32,2.67-27.69Z"/><path class="cls-5" d="M90.51,0A57.84,57.84,0,0,0,42,26.88c-7.44,12-9.65,28.85-.48,39.59,6.15,7.19,16.07,10.12,25.53,10.32,19,.4,36.81-8.58,53.69-17.34C163.67,37.18,124.07.14,90.51,0Z"/><path class="cls-6" d="M561.65,112a50.21,50.21,0,0,0-2.5-4.48A54.14,54.14,0,0,0,520.7,82.83c-17.23-2.17-39.33,4.44-46,21.3-7.48,18.94-7.34,41.64-3,61.23,3.65,16.37,9.75,32.13,15.32,48"/><path class="cls-6" d="M388,213.36a91,91,0,0,0-9.91-11.43c-17.78-17.29-46.21-25.86-68.08-14.16-7.78,4.16-14,10.37-19.72,17.16-2.34,2.75-4.58,5.59-6.81,8.43"/><path class="cls-6" d="M155.82,213.36c-5.38-23.29-6.3-49.08-24.19-63.92-18.42-15.29-44.36-10.57-69-11.31-9.17-.26-18.17-1.29-26.53-4.38C14,125.57-1.11,101.9.06,78.35S18.12,33,40.39,25.31c1.11-.39,2.24-.74,3.37-1,21.51-6,46.05.51,62.05,16.18,5.77,5.66,10.45,12.3,15.19,18.88s9.37,12.84,15.27,18.15c11.16,10,29.83,14.75,40.9,5.44a19.26,19.26,0,0,0,2.11-2c7.12-8,6.91-19.84,9-30.34a34,34,0,0,1,5.11-12.27c3.72-5.45,9.08-9.23,15.4-8.16,8.59,1.45,13.14,11.18,14,19.85s-.49,17.78,2.72,25.88c5.46,13.75,22,18.62,36.94,15.79a40.92,40.92,0,0,0,12.37-4.45c16.66-9.38,27-26.58,38.62-41.78A118,118,0,0,1,327.29,30c9.26-8.47,20.11-14.72,32.43-15"/></svg>