<svg id="Layer_1" data-name="Layer 1" xmlns="http://www.w3.org/2000/svg" viewBox="0 0 1302.73 760.42"><defs><style>.cls-1{fill:#b6d2ee;opacity:0.15;}</style></defs><path class="cls-1" d="M.09,284.85C2.87,369.05,67.17,439,137.74,485.05s151,76.74,216.82,129.27C390,642.56,421.09,677,461.38,697.68c71.5,36.66,158.46,23.17,234.37-3.15,78.8-27.3,153.2-67.37,234.06-87.76s173.43-18.09,239.29,33.07c36.08,28,61,68.19,96,97.56a149.71,149.71,0,0,0,37.61,23V14.33C1225.06-7.33,1138.38-2,1058,14.07,946.24,36.37,837.56,76.94,723.81,84.35,594.33,92.78,465.93,57.76,336.23,54c-76.33-2.2-155.36,7.29-221.57,45.33S-2.44,208.53.09,284.85Z"/></svg>